<mxfile host="Electron" modified="2024-01-26T13:12:02.868Z" agent="Mozilla/5.0 (X11; Linux x86_64) AppleWebKit/537.36 (KHTML, like Gecko) draw.io/22.1.21 Chrome/120.0.6099.109 Electron/28.1.0 Safari/537.36" etag="6eORrxppSTfPIYhBzpvD" version="22.1.21" type="device">
  <diagram name="Page-1" id="727KfZcl64K1rp45U6ox">
    <mxGraphModel dx="1970" dy="1901" grid="1" gridSize="10" guides="1" tooltips="1" connect="1" arrows="1" fold="1" page="1" pageScale="1" pageWidth="850" pageHeight="1100" math="0" shadow="0">
      <root>
        <mxCell id="0" />
        <mxCell id="1" parent="0" />
        <mxCell id="HD2FiB0FhuKvKBtEXWrN-9" style="edgeStyle=orthogonalEdgeStyle;rounded=0;orthogonalLoop=1;jettySize=auto;html=1;entryX=0.5;entryY=1;entryDx=0;entryDy=0;" edge="1" parent="1" source="HD2FiB0FhuKvKBtEXWrN-3" target="HD2FiB0FhuKvKBtEXWrN-5">
          <mxGeometry relative="1" as="geometry">
            <Array as="points">
              <mxPoint x="425" y="855" />
            </Array>
          </mxGeometry>
        </mxCell>
        <mxCell id="HD2FiB0FhuKvKBtEXWrN-120" value="" style="edgeStyle=orthogonalEdgeStyle;rounded=0;orthogonalLoop=1;jettySize=auto;html=1;" edge="1" parent="1" source="HD2FiB0FhuKvKBtEXWrN-3">
          <mxGeometry relative="1" as="geometry">
            <mxPoint x="490" y="975" as="targetPoint" />
          </mxGeometry>
        </mxCell>
        <mxCell id="HD2FiB0FhuKvKBtEXWrN-3" value="" style="html=1;verticalLabelPosition=bottom;labelBackgroundColor=#ffffff;verticalAlign=top;shadow=0;dashed=0;strokeWidth=1;shape=mxgraph.ios7.misc.iphone;strokeColor=#c0c0c0;" vertex="1" parent="1">
          <mxGeometry x="470" y="820" width="40" height="70" as="geometry" />
        </mxCell>
        <mxCell id="HD2FiB0FhuKvKBtEXWrN-8" style="edgeStyle=orthogonalEdgeStyle;rounded=0;orthogonalLoop=1;jettySize=auto;html=1;" edge="1" parent="1" source="HD2FiB0FhuKvKBtEXWrN-4" target="HD2FiB0FhuKvKBtEXWrN-5">
          <mxGeometry relative="1" as="geometry" />
        </mxCell>
        <mxCell id="HD2FiB0FhuKvKBtEXWrN-118" value="" style="edgeStyle=orthogonalEdgeStyle;rounded=0;orthogonalLoop=1;jettySize=auto;html=1;" edge="1" parent="1" source="HD2FiB0FhuKvKBtEXWrN-4" target="HD2FiB0FhuKvKBtEXWrN-117">
          <mxGeometry relative="1" as="geometry" />
        </mxCell>
        <mxCell id="HD2FiB0FhuKvKBtEXWrN-4" value="" style="verticalLabelPosition=bottom;verticalAlign=top;html=1;shadow=0;dashed=0;strokeWidth=1;shape=mxgraph.android.phone2;strokeColor=#c0c0c0;" vertex="1" parent="1">
          <mxGeometry x="340" y="820" width="40" height="70" as="geometry" />
        </mxCell>
        <mxCell id="HD2FiB0FhuKvKBtEXWrN-14" style="edgeStyle=orthogonalEdgeStyle;rounded=0;orthogonalLoop=1;jettySize=auto;html=1;entryX=0.5;entryY=1;entryDx=0;entryDy=0;" edge="1" parent="1" source="HD2FiB0FhuKvKBtEXWrN-5" target="HD2FiB0FhuKvKBtEXWrN-13">
          <mxGeometry relative="1" as="geometry">
            <Array as="points">
              <mxPoint x="425" y="600" />
              <mxPoint x="560" y="600" />
            </Array>
          </mxGeometry>
        </mxCell>
        <mxCell id="HD2FiB0FhuKvKBtEXWrN-16" style="edgeStyle=orthogonalEdgeStyle;rounded=0;orthogonalLoop=1;jettySize=auto;html=1;entryX=0.5;entryY=1;entryDx=0;entryDy=0;" edge="1" parent="1" source="HD2FiB0FhuKvKBtEXWrN-5" target="HD2FiB0FhuKvKBtEXWrN-15">
          <mxGeometry relative="1" as="geometry" />
        </mxCell>
        <mxCell id="HD2FiB0FhuKvKBtEXWrN-23" value="" style="edgeStyle=orthogonalEdgeStyle;rounded=0;orthogonalLoop=1;jettySize=auto;html=1;" edge="1" parent="1" source="HD2FiB0FhuKvKBtEXWrN-5">
          <mxGeometry relative="1" as="geometry">
            <mxPoint x="770" y="705.5" as="targetPoint" />
          </mxGeometry>
        </mxCell>
        <mxCell id="HD2FiB0FhuKvKBtEXWrN-38" style="edgeStyle=orthogonalEdgeStyle;rounded=0;orthogonalLoop=1;jettySize=auto;html=1;entryX=0;entryY=0.5;entryDx=0;entryDy=0;" edge="1" parent="1" source="HD2FiB0FhuKvKBtEXWrN-5" target="HD2FiB0FhuKvKBtEXWrN-36">
          <mxGeometry relative="1" as="geometry" />
        </mxCell>
        <mxCell id="HD2FiB0FhuKvKBtEXWrN-45" style="edgeStyle=orthogonalEdgeStyle;rounded=0;orthogonalLoop=1;jettySize=auto;html=1;entryX=0;entryY=0.5;entryDx=0;entryDy=0;" edge="1" parent="1" source="HD2FiB0FhuKvKBtEXWrN-5" target="HD2FiB0FhuKvKBtEXWrN-43">
          <mxGeometry relative="1" as="geometry" />
        </mxCell>
        <mxCell id="HD2FiB0FhuKvKBtEXWrN-116" value="" style="edgeStyle=orthogonalEdgeStyle;rounded=0;orthogonalLoop=1;jettySize=auto;html=1;" edge="1" parent="1" source="HD2FiB0FhuKvKBtEXWrN-5" target="HD2FiB0FhuKvKBtEXWrN-115">
          <mxGeometry relative="1" as="geometry" />
        </mxCell>
        <mxCell id="HD2FiB0FhuKvKBtEXWrN-5" value="Key Fortress&lt;br&gt;" style="whiteSpace=wrap;html=1;aspect=fixed;" vertex="1" parent="1">
          <mxGeometry x="385" y="665.5" width="80" height="80" as="geometry" />
        </mxCell>
        <mxCell id="HD2FiB0FhuKvKBtEXWrN-7" style="edgeStyle=orthogonalEdgeStyle;rounded=0;orthogonalLoop=1;jettySize=auto;html=1;entryX=0;entryY=0.5;entryDx=0;entryDy=0;" edge="1" parent="1" source="HD2FiB0FhuKvKBtEXWrN-6" target="HD2FiB0FhuKvKBtEXWrN-5">
          <mxGeometry relative="1" as="geometry" />
        </mxCell>
        <mxCell id="HD2FiB0FhuKvKBtEXWrN-123" value="" style="edgeStyle=orthogonalEdgeStyle;rounded=0;orthogonalLoop=1;jettySize=auto;html=1;" edge="1" parent="1" source="HD2FiB0FhuKvKBtEXWrN-6" target="HD2FiB0FhuKvKBtEXWrN-122">
          <mxGeometry relative="1" as="geometry" />
        </mxCell>
        <mxCell id="HD2FiB0FhuKvKBtEXWrN-6" value="desktop" style="sketch=0;outlineConnect=0;gradientColor=none;fontColor=#545B64;strokeColor=none;fillColor=#879196;dashed=0;verticalLabelPosition=bottom;verticalAlign=top;align=center;html=1;fontSize=12;fontStyle=0;aspect=fixed;shape=mxgraph.aws4.illustration_desktop;pointerEvents=1" vertex="1" parent="1">
          <mxGeometry x="140" y="660" width="100" height="91" as="geometry" />
        </mxCell>
        <mxCell id="HD2FiB0FhuKvKBtEXWrN-18" style="edgeStyle=orthogonalEdgeStyle;rounded=0;orthogonalLoop=1;jettySize=auto;html=1;entryX=0.5;entryY=0;entryDx=0;entryDy=0;" edge="1" parent="1" source="HD2FiB0FhuKvKBtEXWrN-10" target="HD2FiB0FhuKvKBtEXWrN-11">
          <mxGeometry relative="1" as="geometry" />
        </mxCell>
        <mxCell id="HD2FiB0FhuKvKBtEXWrN-19" style="edgeStyle=orthogonalEdgeStyle;rounded=0;orthogonalLoop=1;jettySize=auto;html=1;entryX=0.5;entryY=0;entryDx=0;entryDy=0;" edge="1" parent="1" source="HD2FiB0FhuKvKBtEXWrN-10" target="HD2FiB0FhuKvKBtEXWrN-15">
          <mxGeometry relative="1" as="geometry" />
        </mxCell>
        <mxCell id="HD2FiB0FhuKvKBtEXWrN-10" value="Hardware based&amp;nbsp;&lt;br&gt;Encrypted Storage" style="shape=cube;whiteSpace=wrap;html=1;boundedLbl=1;backgroundOutline=1;darkOpacity=0.05;darkOpacity2=0.1;" vertex="1" parent="1">
          <mxGeometry x="365" y="350" width="120" height="80" as="geometry" />
        </mxCell>
        <mxCell id="HD2FiB0FhuKvKBtEXWrN-12" style="edgeStyle=orthogonalEdgeStyle;rounded=0;orthogonalLoop=1;jettySize=auto;html=1;entryX=0.5;entryY=0;entryDx=0;entryDy=0;exitX=0.5;exitY=1;exitDx=0;exitDy=0;" edge="1" parent="1" source="HD2FiB0FhuKvKBtEXWrN-11" target="HD2FiB0FhuKvKBtEXWrN-5">
          <mxGeometry relative="1" as="geometry">
            <Array as="points">
              <mxPoint x="290" y="600" />
              <mxPoint x="425" y="600" />
            </Array>
          </mxGeometry>
        </mxCell>
        <mxCell id="HD2FiB0FhuKvKBtEXWrN-11" value="Password Manager" style="rounded=1;whiteSpace=wrap;html=1;" vertex="1" parent="1">
          <mxGeometry x="230" y="490" width="120" height="60" as="geometry" />
        </mxCell>
        <mxCell id="HD2FiB0FhuKvKBtEXWrN-13" value="Passwordless Identity&lt;br&gt;Manager" style="rounded=1;whiteSpace=wrap;html=1;" vertex="1" parent="1">
          <mxGeometry x="500" y="490" width="120" height="60" as="geometry" />
        </mxCell>
        <mxCell id="HD2FiB0FhuKvKBtEXWrN-15" value="TOTP&lt;br&gt;Secret Manger" style="rounded=1;whiteSpace=wrap;html=1;" vertex="1" parent="1">
          <mxGeometry x="365" y="490" width="120" height="60" as="geometry" />
        </mxCell>
        <mxCell id="HD2FiB0FhuKvKBtEXWrN-21" style="edgeStyle=orthogonalEdgeStyle;rounded=0;orthogonalLoop=1;jettySize=auto;html=1;entryX=0.572;entryY=-0.042;entryDx=0;entryDy=0;entryPerimeter=0;" edge="1" parent="1" source="HD2FiB0FhuKvKBtEXWrN-10" target="HD2FiB0FhuKvKBtEXWrN-13">
          <mxGeometry relative="1" as="geometry" />
        </mxCell>
        <mxCell id="HD2FiB0FhuKvKBtEXWrN-27" value="" style="edgeStyle=orthogonalEdgeStyle;rounded=0;orthogonalLoop=1;jettySize=auto;html=1;" edge="1" parent="1" target="HD2FiB0FhuKvKBtEXWrN-26">
          <mxGeometry relative="1" as="geometry">
            <mxPoint x="850" y="705.5" as="sourcePoint" />
          </mxGeometry>
        </mxCell>
        <mxCell id="HD2FiB0FhuKvKBtEXWrN-29" value="" style="edgeStyle=orthogonalEdgeStyle;rounded=0;orthogonalLoop=1;jettySize=auto;html=1;" edge="1" parent="1" source="HD2FiB0FhuKvKBtEXWrN-26" target="HD2FiB0FhuKvKBtEXWrN-28">
          <mxGeometry relative="1" as="geometry" />
        </mxCell>
        <mxCell id="HD2FiB0FhuKvKBtEXWrN-30" value="" style="edgeStyle=orthogonalEdgeStyle;rounded=0;orthogonalLoop=1;jettySize=auto;html=1;" edge="1" parent="1" source="HD2FiB0FhuKvKBtEXWrN-26" target="HD2FiB0FhuKvKBtEXWrN-28">
          <mxGeometry relative="1" as="geometry" />
        </mxCell>
        <mxCell id="HD2FiB0FhuKvKBtEXWrN-32" value="" style="edgeStyle=orthogonalEdgeStyle;rounded=0;orthogonalLoop=1;jettySize=auto;html=1;" edge="1" parent="1" source="HD2FiB0FhuKvKBtEXWrN-26" target="HD2FiB0FhuKvKBtEXWrN-31">
          <mxGeometry relative="1" as="geometry" />
        </mxCell>
        <mxCell id="HD2FiB0FhuKvKBtEXWrN-34" value="" style="edgeStyle=orthogonalEdgeStyle;rounded=0;orthogonalLoop=1;jettySize=auto;html=1;" edge="1" parent="1" source="HD2FiB0FhuKvKBtEXWrN-26">
          <mxGeometry relative="1" as="geometry">
            <mxPoint x="970" y="580.0000000000002" as="targetPoint" />
          </mxGeometry>
        </mxCell>
        <mxCell id="HD2FiB0FhuKvKBtEXWrN-26" value="Groups" style="ellipse;whiteSpace=wrap;html=1;" vertex="1" parent="1">
          <mxGeometry x="930" y="665.5" width="80" height="80" as="geometry" />
        </mxCell>
        <mxCell id="HD2FiB0FhuKvKBtEXWrN-28" value="Work&amp;nbsp;" style="whiteSpace=wrap;html=1;" vertex="1" parent="1">
          <mxGeometry x="1090" y="620" width="120" height="60" as="geometry" />
        </mxCell>
        <mxCell id="HD2FiB0FhuKvKBtEXWrN-31" value="Personal&amp;nbsp;" style="whiteSpace=wrap;html=1;" vertex="1" parent="1">
          <mxGeometry x="1090" y="740" width="120" height="60" as="geometry" />
        </mxCell>
        <mxCell id="HD2FiB0FhuKvKBtEXWrN-35" value="Option to add group" style="rounded=1;whiteSpace=wrap;html=1;" vertex="1" parent="1">
          <mxGeometry x="910" y="520" width="120" height="60" as="geometry" />
        </mxCell>
        <mxCell id="HD2FiB0FhuKvKBtEXWrN-42" style="edgeStyle=orthogonalEdgeStyle;rounded=0;orthogonalLoop=1;jettySize=auto;html=1;exitX=1;exitY=0.5;exitDx=0;exitDy=0;" edge="1" parent="1" source="HD2FiB0FhuKvKBtEXWrN-36" target="HD2FiB0FhuKvKBtEXWrN-26">
          <mxGeometry relative="1" as="geometry">
            <Array as="points">
              <mxPoint x="880" y="810" />
              <mxPoint x="880" y="706" />
            </Array>
          </mxGeometry>
        </mxCell>
        <mxCell id="HD2FiB0FhuKvKBtEXWrN-47" style="edgeStyle=orthogonalEdgeStyle;rounded=0;orthogonalLoop=1;jettySize=auto;html=1;entryX=0.5;entryY=0;entryDx=0;entryDy=0;" edge="1" parent="1" source="HD2FiB0FhuKvKBtEXWrN-36">
          <mxGeometry relative="1" as="geometry">
            <mxPoint x="1040" y="1005" as="targetPoint" />
          </mxGeometry>
        </mxCell>
        <mxCell id="HD2FiB0FhuKvKBtEXWrN-36" value="Passwordless&lt;br&gt;Identity View" style="whiteSpace=wrap;html=1;aspect=fixed;" vertex="1" parent="1">
          <mxGeometry x="770" y="770" width="80" height="80" as="geometry" />
        </mxCell>
        <mxCell id="HD2FiB0FhuKvKBtEXWrN-64" style="edgeStyle=orthogonalEdgeStyle;rounded=0;orthogonalLoop=1;jettySize=auto;html=1;" edge="1" parent="1" source="HD2FiB0FhuKvKBtEXWrN-41">
          <mxGeometry relative="1" as="geometry">
            <mxPoint x="1330" y="910" as="targetPoint" />
            <Array as="points">
              <mxPoint x="810" y="760" />
              <mxPoint x="1040" y="760" />
              <mxPoint x="1040" y="790" />
              <mxPoint x="1070" y="790" />
              <mxPoint x="1070" y="910" />
            </Array>
          </mxGeometry>
        </mxCell>
        <mxCell id="HD2FiB0FhuKvKBtEXWrN-41" value="Password View" style="whiteSpace=wrap;html=1;aspect=fixed;" vertex="1" parent="1">
          <mxGeometry x="770" y="665.5" width="80" height="80" as="geometry" />
        </mxCell>
        <mxCell id="HD2FiB0FhuKvKBtEXWrN-44" style="edgeStyle=orthogonalEdgeStyle;rounded=0;orthogonalLoop=1;jettySize=auto;html=1;entryX=0;entryY=0.5;entryDx=0;entryDy=0;" edge="1" parent="1" source="HD2FiB0FhuKvKBtEXWrN-43" target="HD2FiB0FhuKvKBtEXWrN-26">
          <mxGeometry relative="1" as="geometry">
            <Array as="points">
              <mxPoint x="880" y="600" />
              <mxPoint x="880" y="705" />
            </Array>
          </mxGeometry>
        </mxCell>
        <mxCell id="HD2FiB0FhuKvKBtEXWrN-92" style="edgeStyle=orthogonalEdgeStyle;rounded=0;orthogonalLoop=1;jettySize=auto;html=1;entryX=0.5;entryY=1;entryDx=0;entryDy=0;" edge="1" parent="1" source="HD2FiB0FhuKvKBtEXWrN-43" target="HD2FiB0FhuKvKBtEXWrN-91">
          <mxGeometry relative="1" as="geometry" />
        </mxCell>
        <mxCell id="HD2FiB0FhuKvKBtEXWrN-43" value="TOTP&lt;br&gt;View" style="whiteSpace=wrap;html=1;aspect=fixed;" vertex="1" parent="1">
          <mxGeometry x="770" y="560" width="80" height="80" as="geometry" />
        </mxCell>
        <mxCell id="HD2FiB0FhuKvKBtEXWrN-55" value="" style="group;fillColor=default;fontColor=#ffffff;strokeColor=#006EAF;gradientColor=none;rounded=1;shadow=0;" vertex="1" connectable="0" parent="1">
          <mxGeometry x="1240" y="1020" width="270" height="275" as="geometry" />
        </mxCell>
        <mxCell id="HD2FiB0FhuKvKBtEXWrN-49" value="Public Key" style="rounded=1;whiteSpace=wrap;html=1;" vertex="1" parent="HD2FiB0FhuKvKBtEXWrN-55">
          <mxGeometry x="33.75" y="120" width="202.5" height="40" as="geometry" />
        </mxCell>
        <mxCell id="HD2FiB0FhuKvKBtEXWrN-50" value="Private Key Hidden" style="rounded=1;whiteSpace=wrap;html=1;" vertex="1" parent="HD2FiB0FhuKvKBtEXWrN-55">
          <mxGeometry x="33.75" y="70" width="202.5" height="40" as="geometry" />
        </mxCell>
        <mxCell id="HD2FiB0FhuKvKBtEXWrN-51" value="View Usage History" style="rounded=1;whiteSpace=wrap;html=1;" vertex="1" parent="HD2FiB0FhuKvKBtEXWrN-55">
          <mxGeometry x="33.75" y="167.5" width="202.5" height="40" as="geometry" />
        </mxCell>
        <mxCell id="HD2FiB0FhuKvKBtEXWrN-52" value="Sign Button" style="rounded=1;whiteSpace=wrap;html=1;" vertex="1" parent="HD2FiB0FhuKvKBtEXWrN-55">
          <mxGeometry x="33.75" y="220" width="196.25" height="40" as="geometry" />
        </mxCell>
        <mxCell id="HD2FiB0FhuKvKBtEXWrN-61" value="Scan to connect" style="rounded=1;whiteSpace=wrap;html=1;" vertex="1" parent="HD2FiB0FhuKvKBtEXWrN-55">
          <mxGeometry x="33.75" y="20" width="202.5" height="40" as="geometry" />
        </mxCell>
        <mxCell id="HD2FiB0FhuKvKBtEXWrN-63" style="edgeStyle=orthogonalEdgeStyle;rounded=0;orthogonalLoop=1;jettySize=auto;html=1;" edge="1" parent="1" source="HD2FiB0FhuKvKBtEXWrN-62">
          <mxGeometry relative="1" as="geometry">
            <mxPoint x="1240" y="1140" as="targetPoint" />
            <Array as="points">
              <mxPoint x="1040" y="1140" />
            </Array>
          </mxGeometry>
        </mxCell>
        <mxCell id="HD2FiB0FhuKvKBtEXWrN-62" value="" style="shape=internalStorage;whiteSpace=wrap;html=1;backgroundOutline=1;" vertex="1" parent="1">
          <mxGeometry x="1000" y="1010" width="80" height="80" as="geometry" />
        </mxCell>
        <mxCell id="HD2FiB0FhuKvKBtEXWrN-73" style="edgeStyle=orthogonalEdgeStyle;rounded=0;orthogonalLoop=1;jettySize=auto;html=1;" edge="1" parent="1" source="HD2FiB0FhuKvKBtEXWrN-66">
          <mxGeometry relative="1" as="geometry">
            <mxPoint x="1870" y="820" as="targetPoint" />
          </mxGeometry>
        </mxCell>
        <mxCell id="HD2FiB0FhuKvKBtEXWrN-66" value="" style="shape=internalStorage;whiteSpace=wrap;html=1;backgroundOutline=1;" vertex="1" parent="1">
          <mxGeometry x="1610" y="870" width="80" height="80" as="geometry" />
        </mxCell>
        <mxCell id="HD2FiB0FhuKvKBtEXWrN-67" value="" style="group;fillColor=default;fontColor=#ffffff;strokeColor=#006EAF;gradientColor=none;rounded=1;shadow=0;" vertex="1" connectable="0" parent="1">
          <mxGeometry x="1730" y="545" width="270" height="275" as="geometry" />
        </mxCell>
        <mxCell id="HD2FiB0FhuKvKBtEXWrN-68" value="Copy Button" style="rounded=1;whiteSpace=wrap;html=1;" vertex="1" parent="HD2FiB0FhuKvKBtEXWrN-67">
          <mxGeometry x="33.75" y="120" width="202.5" height="40" as="geometry" />
        </mxCell>
        <mxCell id="HD2FiB0FhuKvKBtEXWrN-69" value="Strenght Indicator" style="rounded=1;whiteSpace=wrap;html=1;" vertex="1" parent="HD2FiB0FhuKvKBtEXWrN-67">
          <mxGeometry x="33.75" y="70" width="202.5" height="40" as="geometry" />
        </mxCell>
        <mxCell id="HD2FiB0FhuKvKBtEXWrN-72" value="Name" style="rounded=1;whiteSpace=wrap;html=1;" vertex="1" parent="HD2FiB0FhuKvKBtEXWrN-67">
          <mxGeometry x="33.75" y="20" width="202.5" height="40" as="geometry" />
        </mxCell>
        <mxCell id="HD2FiB0FhuKvKBtEXWrN-78" value="Account name" style="rounded=1;whiteSpace=wrap;html=1;" vertex="1" parent="HD2FiB0FhuKvKBtEXWrN-67">
          <mxGeometry x="33.75" y="170" width="202.5" height="40" as="geometry" />
        </mxCell>
        <mxCell id="HD2FiB0FhuKvKBtEXWrN-81" style="edgeStyle=orthogonalEdgeStyle;rounded=0;orthogonalLoop=1;jettySize=auto;html=1;entryX=0;entryY=0.5;entryDx=0;entryDy=0;" edge="1" parent="1" source="HD2FiB0FhuKvKBtEXWrN-80" target="HD2FiB0FhuKvKBtEXWrN-66">
          <mxGeometry relative="1" as="geometry" />
        </mxCell>
        <mxCell id="HD2FiB0FhuKvKBtEXWrN-83" value="" style="edgeStyle=orthogonalEdgeStyle;rounded=0;orthogonalLoop=1;jettySize=auto;html=1;" edge="1" parent="1" source="HD2FiB0FhuKvKBtEXWrN-80" target="HD2FiB0FhuKvKBtEXWrN-82">
          <mxGeometry relative="1" as="geometry" />
        </mxCell>
        <mxCell id="HD2FiB0FhuKvKBtEXWrN-80" value="UI Features" style="whiteSpace=wrap;html=1;aspect=fixed;" vertex="1" parent="1">
          <mxGeometry x="1335" y="870" width="80" height="80" as="geometry" />
        </mxCell>
        <mxCell id="HD2FiB0FhuKvKBtEXWrN-90" style="edgeStyle=orthogonalEdgeStyle;rounded=0;orthogonalLoop=1;jettySize=auto;html=1;" edge="1" parent="1" source="HD2FiB0FhuKvKBtEXWrN-82">
          <mxGeometry relative="1" as="geometry">
            <mxPoint x="1410" y="690" as="targetPoint" />
          </mxGeometry>
        </mxCell>
        <mxCell id="HD2FiB0FhuKvKBtEXWrN-82" value="Generate new" style="whiteSpace=wrap;html=1;" vertex="1" parent="1">
          <mxGeometry x="1315" y="760" width="120" height="60" as="geometry" />
        </mxCell>
        <mxCell id="HD2FiB0FhuKvKBtEXWrN-84" value="" style="group;fillColor=default;fontColor=#ffffff;strokeColor=#006EAF;gradientColor=none;rounded=1;shadow=0;" vertex="1" connectable="0" parent="1">
          <mxGeometry x="1270" y="412.5" width="270" height="275" as="geometry" />
        </mxCell>
        <mxCell id="HD2FiB0FhuKvKBtEXWrN-85" value="Size Slider" style="rounded=1;whiteSpace=wrap;html=1;" vertex="1" parent="HD2FiB0FhuKvKBtEXWrN-84">
          <mxGeometry x="33.75" y="120" width="202.5" height="40" as="geometry" />
        </mxCell>
        <mxCell id="HD2FiB0FhuKvKBtEXWrN-86" value="Strenght Indicator" style="rounded=1;whiteSpace=wrap;html=1;" vertex="1" parent="HD2FiB0FhuKvKBtEXWrN-84">
          <mxGeometry x="33.75" y="70" width="202.5" height="40" as="geometry" />
        </mxCell>
        <mxCell id="HD2FiB0FhuKvKBtEXWrN-87" value="Name" style="rounded=1;whiteSpace=wrap;html=1;" vertex="1" parent="HD2FiB0FhuKvKBtEXWrN-84">
          <mxGeometry x="33.75" y="20" width="202.5" height="40" as="geometry" />
        </mxCell>
        <mxCell id="HD2FiB0FhuKvKBtEXWrN-88" value="Account name" style="rounded=1;whiteSpace=wrap;html=1;" vertex="1" parent="HD2FiB0FhuKvKBtEXWrN-84">
          <mxGeometry x="33.75" y="170" width="202.5" height="40" as="geometry" />
        </mxCell>
        <mxCell id="HD2FiB0FhuKvKBtEXWrN-89" value="Save" style="rounded=1;whiteSpace=wrap;html=1;" vertex="1" parent="HD2FiB0FhuKvKBtEXWrN-84">
          <mxGeometry x="33.75" y="225" width="202.5" height="40" as="geometry" />
        </mxCell>
        <mxCell id="HD2FiB0FhuKvKBtEXWrN-100" style="edgeStyle=orthogonalEdgeStyle;rounded=0;orthogonalLoop=1;jettySize=auto;html=1;" edge="1" parent="1" source="HD2FiB0FhuKvKBtEXWrN-91" target="HD2FiB0FhuKvKBtEXWrN-99">
          <mxGeometry relative="1" as="geometry" />
        </mxCell>
        <mxCell id="HD2FiB0FhuKvKBtEXWrN-103" style="edgeStyle=orthogonalEdgeStyle;rounded=0;orthogonalLoop=1;jettySize=auto;html=1;" edge="1" parent="1" source="HD2FiB0FhuKvKBtEXWrN-91" target="HD2FiB0FhuKvKBtEXWrN-102">
          <mxGeometry relative="1" as="geometry" />
        </mxCell>
        <mxCell id="HD2FiB0FhuKvKBtEXWrN-91" value="UI Features" style="whiteSpace=wrap;html=1;aspect=fixed;" vertex="1" parent="1">
          <mxGeometry x="800" y="340" width="80" height="80" as="geometry" />
        </mxCell>
        <mxCell id="HD2FiB0FhuKvKBtEXWrN-93" value="" style="group;fillColor=default;fontColor=#ffffff;strokeColor=#006EAF;gradientColor=none;rounded=1;shadow=0;" vertex="1" connectable="0" parent="1">
          <mxGeometry x="1045" y="-50" width="270" height="260" as="geometry" />
        </mxCell>
        <mxCell id="HD2FiB0FhuKvKBtEXWrN-94" value="Counter" style="rounded=1;whiteSpace=wrap;html=1;" vertex="1" parent="HD2FiB0FhuKvKBtEXWrN-93">
          <mxGeometry x="33.75" y="134.72454545454548" width="202.5" height="37.81818181818182" as="geometry" />
        </mxCell>
        <mxCell id="HD2FiB0FhuKvKBtEXWrN-95" value="Code&amp;nbsp;" style="rounded=1;whiteSpace=wrap;html=1;" vertex="1" parent="HD2FiB0FhuKvKBtEXWrN-93">
          <mxGeometry x="33.75" y="87.45181818181818" width="202.5" height="37.81818181818182" as="geometry" />
        </mxCell>
        <mxCell id="HD2FiB0FhuKvKBtEXWrN-96" value="Name" style="rounded=1;whiteSpace=wrap;html=1;" vertex="1" parent="HD2FiB0FhuKvKBtEXWrN-93">
          <mxGeometry x="33.75" y="40.17909090909091" width="202.5" height="37.81818181818182" as="geometry" />
        </mxCell>
        <mxCell id="HD2FiB0FhuKvKBtEXWrN-97" value="Account name" style="rounded=1;whiteSpace=wrap;html=1;" vertex="1" parent="HD2FiB0FhuKvKBtEXWrN-93">
          <mxGeometry x="33.75" y="181.99727272727276" width="202.5" height="37.81818181818182" as="geometry" />
        </mxCell>
        <mxCell id="HD2FiB0FhuKvKBtEXWrN-101" style="edgeStyle=orthogonalEdgeStyle;rounded=0;orthogonalLoop=1;jettySize=auto;html=1;" edge="1" parent="1" source="HD2FiB0FhuKvKBtEXWrN-99">
          <mxGeometry relative="1" as="geometry">
            <mxPoint x="1040" y="80" as="targetPoint" />
            <Array as="points">
              <mxPoint x="850" y="80" />
            </Array>
          </mxGeometry>
        </mxCell>
        <mxCell id="HD2FiB0FhuKvKBtEXWrN-99" value="" style="shape=internalStorage;whiteSpace=wrap;html=1;backgroundOutline=1;" vertex="1" parent="1">
          <mxGeometry x="800" y="130" width="80" height="80" as="geometry" />
        </mxCell>
        <mxCell id="HD2FiB0FhuKvKBtEXWrN-105" style="edgeStyle=orthogonalEdgeStyle;rounded=0;orthogonalLoop=1;jettySize=auto;html=1;entryX=0;entryY=0.5;entryDx=0;entryDy=0;" edge="1" parent="1" source="HD2FiB0FhuKvKBtEXWrN-102" target="HD2FiB0FhuKvKBtEXWrN-104">
          <mxGeometry relative="1" as="geometry" />
        </mxCell>
        <mxCell id="HD2FiB0FhuKvKBtEXWrN-102" value="Add new" style="rounded=1;whiteSpace=wrap;html=1;" vertex="1" parent="1">
          <mxGeometry x="940" y="320" width="120" height="60" as="geometry" />
        </mxCell>
        <mxCell id="HD2FiB0FhuKvKBtEXWrN-111" value="" style="edgeStyle=orthogonalEdgeStyle;rounded=0;orthogonalLoop=1;jettySize=auto;html=1;" edge="1" parent="1" source="HD2FiB0FhuKvKBtEXWrN-104" target="HD2FiB0FhuKvKBtEXWrN-110">
          <mxGeometry relative="1" as="geometry" />
        </mxCell>
        <mxCell id="HD2FiB0FhuKvKBtEXWrN-104" value="QR Scan" style="whiteSpace=wrap;html=1;aspect=fixed;" vertex="1" parent="1">
          <mxGeometry x="1150" y="300" width="80" height="80" as="geometry" />
        </mxCell>
        <mxCell id="HD2FiB0FhuKvKBtEXWrN-110" value="user input" style="rhombus;whiteSpace=wrap;html=1;" vertex="1" parent="1">
          <mxGeometry x="1150" y="410" width="80" height="80" as="geometry" />
        </mxCell>
        <mxCell id="HD2FiB0FhuKvKBtEXWrN-125" style="edgeStyle=orthogonalEdgeStyle;rounded=0;orthogonalLoop=1;jettySize=auto;html=1;" edge="1" parent="1" source="HD2FiB0FhuKvKBtEXWrN-115" target="HD2FiB0FhuKvKBtEXWrN-124">
          <mxGeometry relative="1" as="geometry">
            <Array as="points">
              <mxPoint x="720" y="1120" />
            </Array>
          </mxGeometry>
        </mxCell>
        <mxCell id="HD2FiB0FhuKvKBtEXWrN-115" value="Sync Passwords" style="whiteSpace=wrap;html=1;" vertex="1" parent="1">
          <mxGeometry x="670" y="880" width="120" height="60" as="geometry" />
        </mxCell>
        <mxCell id="HD2FiB0FhuKvKBtEXWrN-117" value="Kotlin Autofill" style="whiteSpace=wrap;html=1;verticalAlign=top;strokeColor=#c0c0c0;shadow=0;dashed=0;strokeWidth=1;" vertex="1" parent="1">
          <mxGeometry x="300" y="940" width="120" height="60" as="geometry" />
        </mxCell>
        <mxCell id="HD2FiB0FhuKvKBtEXWrN-121" value="Swift Autofill&lt;br&gt;" style="whiteSpace=wrap;html=1;verticalAlign=top;strokeColor=#c0c0c0;shadow=0;dashed=0;strokeWidth=1;" vertex="1" parent="1">
          <mxGeometry x="430" y="940" width="120" height="60" as="geometry" />
        </mxCell>
        <mxCell id="HD2FiB0FhuKvKBtEXWrN-122" value="Mac, Windows and Linux Autofill" style="whiteSpace=wrap;html=1;verticalAlign=top;fillColor=#879196;strokeColor=none;fontColor=#545B64;sketch=0;gradientColor=none;dashed=0;fontStyle=0;" vertex="1" parent="1">
          <mxGeometry x="130" y="846.5" width="120" height="60" as="geometry" />
        </mxCell>
        <mxCell id="HD2FiB0FhuKvKBtEXWrN-127" style="edgeStyle=orthogonalEdgeStyle;rounded=0;orthogonalLoop=1;jettySize=auto;html=1;entryX=0.5;entryY=0;entryDx=0;entryDy=0;" edge="1" parent="1" source="HD2FiB0FhuKvKBtEXWrN-124" target="HD2FiB0FhuKvKBtEXWrN-126">
          <mxGeometry relative="1" as="geometry" />
        </mxCell>
        <mxCell id="HD2FiB0FhuKvKBtEXWrN-124" value="UI" style="whiteSpace=wrap;html=1;aspect=fixed;" vertex="1" parent="1">
          <mxGeometry x="690" y="1060" width="80" height="80" as="geometry" />
        </mxCell>
        <mxCell id="HD2FiB0FhuKvKBtEXWrN-134" style="edgeStyle=orthogonalEdgeStyle;rounded=0;orthogonalLoop=1;jettySize=auto;html=1;" edge="1" parent="1" source="HD2FiB0FhuKvKBtEXWrN-126">
          <mxGeometry relative="1" as="geometry">
            <mxPoint x="710" y="1330" as="targetPoint" />
          </mxGeometry>
        </mxCell>
        <mxCell id="HD2FiB0FhuKvKBtEXWrN-126" value="" style="shape=internalStorage;whiteSpace=wrap;html=1;backgroundOutline=1;" vertex="1" parent="1">
          <mxGeometry x="690" y="1200" width="80" height="80" as="geometry" />
        </mxCell>
        <mxCell id="HD2FiB0FhuKvKBtEXWrN-128" value="" style="group;fillColor=default;fontColor=#ffffff;strokeColor=#006EAF;gradientColor=none;rounded=1;shadow=0;" vertex="1" connectable="0" parent="1">
          <mxGeometry x="580" y="1330" width="270" height="275" as="geometry" />
        </mxCell>
        <mxCell id="HD2FiB0FhuKvKBtEXWrN-129" value="Last Connected" style="rounded=1;whiteSpace=wrap;html=1;" vertex="1" parent="HD2FiB0FhuKvKBtEXWrN-128">
          <mxGeometry x="33.75" y="160" width="202.5" height="40" as="geometry" />
        </mxCell>
        <mxCell id="HD2FiB0FhuKvKBtEXWrN-130" value="Name" style="rounded=1;whiteSpace=wrap;html=1;" vertex="1" parent="HD2FiB0FhuKvKBtEXWrN-128">
          <mxGeometry x="33.75" y="110" width="202.5" height="40" as="geometry" />
        </mxCell>
        <mxCell id="HD2FiB0FhuKvKBtEXWrN-133" value="IP" style="rounded=1;whiteSpace=wrap;html=1;" vertex="1" parent="HD2FiB0FhuKvKBtEXWrN-128">
          <mxGeometry x="33.75" y="60" width="202.5" height="40" as="geometry" />
        </mxCell>
        <mxCell id="HD2FiB0FhuKvKBtEXWrN-135" value="Connect" style="rounded=1;whiteSpace=wrap;html=1;" vertex="1" parent="HD2FiB0FhuKvKBtEXWrN-128">
          <mxGeometry x="33.75" y="210" width="202.5" height="40" as="geometry" />
        </mxCell>
        <mxCell id="HD2FiB0FhuKvKBtEXWrN-151" style="edgeStyle=orthogonalEdgeStyle;rounded=0;orthogonalLoop=1;jettySize=auto;html=1;entryX=0.5;entryY=1;entryDx=0;entryDy=0;" edge="1" parent="1" source="HD2FiB0FhuKvKBtEXWrN-136" target="HD2FiB0FhuKvKBtEXWrN-145">
          <mxGeometry relative="1" as="geometry" />
        </mxCell>
        <mxCell id="HD2FiB0FhuKvKBtEXWrN-159" value="" style="edgeStyle=orthogonalEdgeStyle;rounded=0;orthogonalLoop=1;jettySize=auto;html=1;" edge="1" parent="1" source="HD2FiB0FhuKvKBtEXWrN-136" target="HD2FiB0FhuKvKBtEXWrN-158">
          <mxGeometry relative="1" as="geometry" />
        </mxCell>
        <mxCell id="HD2FiB0FhuKvKBtEXWrN-136" value="Wifi Service" style="whiteSpace=wrap;html=1;rounded=1;" vertex="1" parent="1">
          <mxGeometry x="420" y="1530" width="120" height="60" as="geometry" />
        </mxCell>
        <mxCell id="HD2FiB0FhuKvKBtEXWrN-137" value="" style="edgeStyle=orthogonalEdgeStyle;rounded=0;orthogonalLoop=1;jettySize=auto;html=1;" edge="1" parent="1" source="HD2FiB0FhuKvKBtEXWrN-135" target="HD2FiB0FhuKvKBtEXWrN-136">
          <mxGeometry relative="1" as="geometry" />
        </mxCell>
        <mxCell id="HD2FiB0FhuKvKBtEXWrN-142" style="edgeStyle=orthogonalEdgeStyle;rounded=0;orthogonalLoop=1;jettySize=auto;html=1;" edge="1" parent="1" source="HD2FiB0FhuKvKBtEXWrN-140" target="HD2FiB0FhuKvKBtEXWrN-141">
          <mxGeometry relative="1" as="geometry" />
        </mxCell>
        <mxCell id="HD2FiB0FhuKvKBtEXWrN-146" style="edgeStyle=orthogonalEdgeStyle;rounded=0;orthogonalLoop=1;jettySize=auto;html=1;entryX=0;entryY=0.5;entryDx=0;entryDy=0;" edge="1" parent="1" source="HD2FiB0FhuKvKBtEXWrN-140" target="HD2FiB0FhuKvKBtEXWrN-145">
          <mxGeometry relative="1" as="geometry" />
        </mxCell>
        <mxCell id="HD2FiB0FhuKvKBtEXWrN-140" value="" style="verticalLabelPosition=bottom;verticalAlign=top;html=1;shadow=0;dashed=0;strokeWidth=1;shape=mxgraph.android.phone2;strokeColor=#c0c0c0;" vertex="1" parent="1">
          <mxGeometry x="290" y="1135.5" width="40" height="70" as="geometry" />
        </mxCell>
        <mxCell id="HD2FiB0FhuKvKBtEXWrN-148" value="" style="edgeStyle=orthogonalEdgeStyle;rounded=0;orthogonalLoop=1;jettySize=auto;html=1;" edge="1" parent="1" source="HD2FiB0FhuKvKBtEXWrN-141" target="HD2FiB0FhuKvKBtEXWrN-147">
          <mxGeometry relative="1" as="geometry" />
        </mxCell>
        <mxCell id="HD2FiB0FhuKvKBtEXWrN-141" value="desktop" style="sketch=0;outlineConnect=0;gradientColor=none;fontColor=#545B64;strokeColor=none;fillColor=#879196;dashed=0;verticalLabelPosition=bottom;verticalAlign=top;align=center;html=1;fontSize=12;fontStyle=0;aspect=fixed;shape=mxgraph.aws4.illustration_desktop;pointerEvents=1" vertex="1" parent="1">
          <mxGeometry x="90" y="1125" width="100" height="91" as="geometry" />
        </mxCell>
        <mxCell id="HD2FiB0FhuKvKBtEXWrN-145" value="Identity Service" style="rounded=0;whiteSpace=wrap;html=1;" vertex="1" parent="1">
          <mxGeometry x="400" y="1156" width="120" height="60" as="geometry" />
        </mxCell>
        <mxCell id="HD2FiB0FhuKvKBtEXWrN-150" style="edgeStyle=orthogonalEdgeStyle;rounded=0;orthogonalLoop=1;jettySize=auto;html=1;entryX=0.5;entryY=0;entryDx=0;entryDy=0;" edge="1" parent="1" source="HD2FiB0FhuKvKBtEXWrN-147" target="HD2FiB0FhuKvKBtEXWrN-149">
          <mxGeometry relative="1" as="geometry" />
        </mxCell>
        <mxCell id="HD2FiB0FhuKvKBtEXWrN-153" value="" style="edgeStyle=orthogonalEdgeStyle;rounded=0;orthogonalLoop=1;jettySize=auto;html=1;" edge="1" parent="1" source="HD2FiB0FhuKvKBtEXWrN-147" target="HD2FiB0FhuKvKBtEXWrN-152">
          <mxGeometry relative="1" as="geometry" />
        </mxCell>
        <mxCell id="HD2FiB0FhuKvKBtEXWrN-147" value="Identity Service" style="whiteSpace=wrap;html=1;verticalAlign=top;fillColor=#879196;strokeColor=none;fontColor=#545B64;sketch=0;gradientColor=none;dashed=0;fontStyle=0;" vertex="1" parent="1">
          <mxGeometry x="10" y="1311.5" width="120" height="60" as="geometry" />
        </mxCell>
        <mxCell id="HD2FiB0FhuKvKBtEXWrN-157" style="edgeStyle=orthogonalEdgeStyle;rounded=0;orthogonalLoop=1;jettySize=auto;html=1;entryX=0;entryY=0.5;entryDx=0;entryDy=0;" edge="1" parent="1" source="HD2FiB0FhuKvKBtEXWrN-149" target="HD2FiB0FhuKvKBtEXWrN-136">
          <mxGeometry relative="1" as="geometry" />
        </mxCell>
        <mxCell id="HD2FiB0FhuKvKBtEXWrN-149" value="Import Public key" style="rounded=1;whiteSpace=wrap;html=1;" vertex="1" parent="1">
          <mxGeometry x="70" y="1470" width="120" height="60" as="geometry" />
        </mxCell>
        <mxCell id="HD2FiB0FhuKvKBtEXWrN-155" value="" style="edgeStyle=orthogonalEdgeStyle;rounded=0;orthogonalLoop=1;jettySize=auto;html=1;" edge="1" parent="1" source="HD2FiB0FhuKvKBtEXWrN-152" target="HD2FiB0FhuKvKBtEXWrN-154">
          <mxGeometry relative="1" as="geometry" />
        </mxCell>
        <mxCell id="HD2FiB0FhuKvKBtEXWrN-152" value="Challenge&lt;br&gt;Service" style="ellipse;whiteSpace=wrap;html=1;verticalAlign=top;fillColor=#879196;strokeColor=none;fontColor=#545B64;sketch=0;gradientColor=none;dashed=0;fontStyle=0;" vertex="1" parent="1">
          <mxGeometry x="210" y="1220" width="80" height="80" as="geometry" />
        </mxCell>
        <mxCell id="HD2FiB0FhuKvKBtEXWrN-156" style="edgeStyle=orthogonalEdgeStyle;rounded=0;orthogonalLoop=1;jettySize=auto;html=1;entryX=0.5;entryY=0;entryDx=0;entryDy=0;" edge="1" parent="1" source="HD2FiB0FhuKvKBtEXWrN-154" target="HD2FiB0FhuKvKBtEXWrN-149">
          <mxGeometry relative="1" as="geometry">
            <Array as="points">
              <mxPoint x="130" y="1430" />
            </Array>
          </mxGeometry>
        </mxCell>
        <mxCell id="HD2FiB0FhuKvKBtEXWrN-154" value="Generate Message" style="whiteSpace=wrap;html=1;verticalAlign=top;fillColor=#879196;strokeColor=none;fontColor=#545B64;sketch=0;gradientColor=none;dashed=0;fontStyle=0;" vertex="1" parent="1">
          <mxGeometry x="190" y="1400" width="120" height="60" as="geometry" />
        </mxCell>
        <mxCell id="HD2FiB0FhuKvKBtEXWrN-161" value="" style="edgeStyle=orthogonalEdgeStyle;rounded=0;orthogonalLoop=1;jettySize=auto;html=1;" edge="1" parent="1" source="HD2FiB0FhuKvKBtEXWrN-158" target="HD2FiB0FhuKvKBtEXWrN-160">
          <mxGeometry relative="1" as="geometry" />
        </mxCell>
        <mxCell id="HD2FiB0FhuKvKBtEXWrN-158" value="Verification Service" style="whiteSpace=wrap;html=1;rounded=1;" vertex="1" parent="1">
          <mxGeometry x="420" y="1670" width="120" height="60" as="geometry" />
        </mxCell>
        <mxCell id="HD2FiB0FhuKvKBtEXWrN-160" value="Session Service" style="whiteSpace=wrap;html=1;rounded=1;" vertex="1" parent="1">
          <mxGeometry x="220" y="1670" width="120" height="60" as="geometry" />
        </mxCell>
        <mxCell id="HD2FiB0FhuKvKBtEXWrN-163" style="edgeStyle=orthogonalEdgeStyle;rounded=0;orthogonalLoop=1;jettySize=auto;html=1;entryX=0.5;entryY=1;entryDx=0;entryDy=0;" edge="1" parent="1" source="HD2FiB0FhuKvKBtEXWrN-162" target="HD2FiB0FhuKvKBtEXWrN-160">
          <mxGeometry relative="1" as="geometry" />
        </mxCell>
        <mxCell id="HD2FiB0FhuKvKBtEXWrN-165" value="" style="edgeStyle=orthogonalEdgeStyle;rounded=0;orthogonalLoop=1;jettySize=auto;html=1;" edge="1" parent="1" source="HD2FiB0FhuKvKBtEXWrN-162" target="HD2FiB0FhuKvKBtEXWrN-164">
          <mxGeometry relative="1" as="geometry" />
        </mxCell>
        <mxCell id="HD2FiB0FhuKvKBtEXWrN-167" value="" style="edgeStyle=orthogonalEdgeStyle;rounded=0;orthogonalLoop=1;jettySize=auto;html=1;" edge="1" parent="1" source="HD2FiB0FhuKvKBtEXWrN-162" target="HD2FiB0FhuKvKBtEXWrN-166">
          <mxGeometry relative="1" as="geometry" />
        </mxCell>
        <mxCell id="HD2FiB0FhuKvKBtEXWrN-169" value="" style="edgeStyle=orthogonalEdgeStyle;rounded=0;orthogonalLoop=1;jettySize=auto;html=1;" edge="1" parent="1" source="HD2FiB0FhuKvKBtEXWrN-162" target="HD2FiB0FhuKvKBtEXWrN-168">
          <mxGeometry relative="1" as="geometry" />
        </mxCell>
        <mxCell id="HD2FiB0FhuKvKBtEXWrN-162" value="Device Sync&amp;nbsp;&lt;br&gt;UI" style="whiteSpace=wrap;html=1;aspect=fixed;" vertex="1" parent="1">
          <mxGeometry x="240" y="1810" width="80" height="80" as="geometry" />
        </mxCell>
        <mxCell id="HD2FiB0FhuKvKBtEXWrN-164" value="Full Sync" style="whiteSpace=wrap;html=1;" vertex="1" parent="1">
          <mxGeometry x="380" y="1820" width="120" height="60" as="geometry" />
        </mxCell>
        <mxCell id="HD2FiB0FhuKvKBtEXWrN-166" value="One Time copy" style="whiteSpace=wrap;html=1;" vertex="1" parent="1">
          <mxGeometry x="220" y="1980" width="120" height="60" as="geometry" />
        </mxCell>
        <mxCell id="HD2FiB0FhuKvKBtEXWrN-168" value="Send selected" style="whiteSpace=wrap;html=1;" vertex="1" parent="1">
          <mxGeometry x="60" y="1820" width="120" height="60" as="geometry" />
        </mxCell>
      </root>
    </mxGraphModel>
  </diagram>
</mxfile>
